<svg width="16" height="16" viewBox="0 0 16 16" fill="none" xmlns="http://www.w3.org/2000/svg">
<path d="M1.33399 8.0001C1.33432 6.5385 1.81497 5.11752 2.70197 3.95583C3.58898 2.79415 4.83316 1.95616 6.24305 1.57082C7.65294 1.18549 9.1504 1.27416 10.505 1.82321C11.8595 2.37225 12.9961 3.35123 13.7398 4.60948C14.4835 5.86773 14.7931 7.33552 14.6209 8.78694C14.4487 10.2384 13.8043 11.593 12.7869 12.6423C11.7695 13.6917 10.4354 14.3776 8.98999 14.5945C7.54457 14.8114 6.06793 14.5473 4.78732 13.8428L2.19532 14.6321C2.07971 14.6673 1.95669 14.6704 1.83944 14.6412C1.72219 14.6119 1.61511 14.5512 1.52965 14.4658C1.44419 14.3803 1.38357 14.2732 1.35427 14.156C1.32497 14.0387 1.3281 13.9157 1.36332 13.8001L2.15265 11.2041C1.615 10.2218 1.33345 9.11991 1.33399 8.0001ZM5.33399 7.33344C5.33399 7.51025 5.40422 7.67982 5.52925 7.80484C5.65427 7.92987 5.82384 8.0001 6.00065 8.0001H10.0007C10.1775 8.0001 10.347 7.92987 10.4721 7.80484C10.5971 7.67982 10.6673 7.51025 10.6673 7.33344C10.6673 7.15663 10.5971 6.98706 10.4721 6.86203C10.347 6.73701 10.1775 6.66677 10.0007 6.66677H6.00065C5.82384 6.66677 5.65427 6.73701 5.52925 6.86203C5.40422 6.98706 5.33399 7.15663 5.33399 7.33344ZM6.00065 9.33344C5.82384 9.33344 5.65427 9.40368 5.52925 9.5287C5.40422 9.65372 5.33399 9.82329 5.33399 10.0001C5.33399 10.1769 5.40422 10.3465 5.52925 10.4715C5.65427 10.5965 5.82384 10.6668 6.00065 10.6668H8.66732C8.84413 10.6668 9.0137 10.5965 9.13872 10.4715C9.26375 10.3465 9.33399 10.1769 9.33399 10.0001C9.33399 9.82329 9.26375 9.65372 9.13872 9.5287C9.0137 9.40368 8.84413 9.33344 8.66732 9.33344H6.00065Z" fill="white"/>
</svg>
