<svg fill="none" xmlns="http://www.w3.org/2000/svg" viewBox="0 0 24 24" class="design-iconfont">
  <path d="M7 16.25C8.51878 16.25 9.75 17.4812 9.75 19C9.75 20.5188 8.51878 21.75 7 21.75C5.74122 21.75 4.67998 20.9043 4.35352 19.75H3C2.58579 19.75 2.25 19.4142 2.25 19C2.25 18.5858 2.58579 18.25 3 18.25H4.35352C4.67998 17.0957 5.74122 16.25 7 16.25ZM21 18.25C21.4142 18.25 21.75 18.5858 21.75 19C21.75 19.4142 21.4142 19.75 21 19.75H12C11.5858 19.75 11.25 19.4142 11.25 19C11.25 18.5858 11.5858 18.25 12 18.25H21ZM17 9.25C18.2588 9.25 19.32 10.0957 19.6465 11.25H21C21.4142 11.25 21.75 11.5858 21.75 12C21.75 12.4142 21.4142 12.75 21 12.75H19.6465C19.32 13.9043 18.2588 14.75 17 14.75C15.4812 14.75 14.25 13.5188 14.25 12C14.25 10.4812 15.4812 9.25 17 9.25ZM12 11.25C12.4142 11.25 12.75 11.5858 12.75 12C12.75 12.4142 12.4142 12.75 12 12.75H3C2.58579 12.75 2.25 12.4142 2.25 12C2.25 11.5858 2.58579 11.25 3 11.25H12ZM12 2.25C13.2588 2.25 14.32 3.09575 14.6465 4.25H21C21.4142 4.25 21.75 4.58579 21.75 5C21.75 5.41421 21.4142 5.75 21 5.75H14.6465C14.32 6.90425 13.2588 7.75 12 7.75C10.7412 7.75 9.67998 6.90425 9.35352 5.75H3C2.58579 5.75 2.25 5.41421 2.25 5C2.25 4.58579 2.58579 4.25 3 4.25H9.35352C9.67998 3.09575 10.7412 2.25 12 2.25Z" fill="#fff"/>
</svg>
