<svg width="12" height="13" viewBox="0 0 12 13" fill="none" xmlns="http://www.w3.org/2000/svg">
<path d="M11.2096 4.65829C11.2096 2.9215 9.84642 1.50781 8.17333 1.50781C7.34687 1.50781 6.56468 1.86433 5.99997 2.47253C5.43449 1.86433 4.65155 1.50781 3.82664 1.50781C2.15275 1.50781 0.790344 2.92071 0.790344 4.65829C0.790344 4.71656 0.795789 4.76859 0.800441 4.8113C0.799674 4.82529 0.798894 4.83927 0.798894 4.85402C0.798894 5.16161 0.87346 5.4995 1.02026 5.85835C1.02493 5.87156 1.02958 5.88397 1.03501 5.89563C1.96013 8.11479 5.52151 10.668 5.67297 10.7852C5.76696 10.8575 5.87882 10.8932 5.99145 10.8932C6.10562 10.8932 6.21824 10.856 6.31302 10.7822C6.44272 10.6812 9.48059 8.49462 10.6861 6.42615C10.7319 6.35625 10.7661 6.28867 10.7964 6.23041C10.8057 6.21178 10.8143 6.19314 10.8243 6.17528L10.8282 6.16673C10.8321 6.15973 10.8368 6.15195 10.8414 6.14575C10.9137 6.00516 10.9712 5.87466 11.017 5.74729C11.142 5.4195 11.2034 5.12745 11.2034 4.85478C11.2034 4.83383 11.2026 4.81518 11.2011 4.79964C11.205 4.76394 11.2096 4.71578 11.2096 4.65829ZM2.29903 4.71628C1.97549 4.38256 2.09789 3.7391 2.5724 3.27907C3.0469 2.81904 3.69385 2.71665 4.01739 3.05036C4.34092 3.3841 3.4925 3.37609 3.01799 3.83613C2.54347 4.29615 2.62257 5.05001 2.29903 4.71628Z" fill="white"/>
</svg>
