<svg width="24" height="24" viewBox="0 0 24 24" fill="none" xmlns="http://www.w3.org/2000/svg">
<path d="M13.3455 22.7349C12.9123 23.1786 12.3825 23.4004 11.756 23.4004C11.1342 23.4004 10.605 23.1792 10.1682 22.7367C9.73141 22.2943 9.51481 21.7516 9.51839 21.1087C9.52197 20.4658 9.73857 19.9238 10.1682 19.4826C10.5978 19.0413 11.1271 18.8195 11.756 18.8171C12.3849 18.8146 12.9147 19.0358 13.3455 19.4807C13.7764 19.9256 13.9924 20.4683 13.9935 21.1087C13.9947 21.7492 13.7787 22.2912 13.3455 22.7349Z" fill="white"/>
<path d="M13.9721 5.25039C13.4195 4.7615 12.7703 4.51706 12.0245 4.51706C11.4887 4.51706 10.9743 4.63928 10.4814 4.88372C9.98858 5.12817 9.57806 5.47956 9.24988 5.93789C8.95154 6.36567 8.57861 6.62539 8.13109 6.71706C7.68358 6.80872 7.25098 6.73233 6.8333 6.48789C6.50631 6.27522 6.30523 5.96233 6.23005 5.54922C6.15486 5.13611 6.22169 4.74622 6.43053 4.37956C6.96875 3.37122 7.7522 2.62261 8.78089 2.13372C9.80957 1.64484 10.8908 1.40039 12.0245 1.40039C13.6666 1.40161 15.1064 1.89845 16.3439 2.89089C17.5814 3.88334 18.2002 5.15872 18.2002 6.71706C18.2014 7.69483 17.9555 8.58095 17.4627 9.37539C16.9698 10.1698 16.3803 10.9032 15.6941 11.5754C15.2168 12.0349 14.7692 12.5165 14.3516 13.0201C13.9339 13.5236 13.6654 14.0962 13.546 14.7379C13.4577 15.1962 13.2566 15.5782 12.9428 15.8837C12.6289 16.1893 12.2482 16.3421 11.8007 16.3421C11.3842 16.3433 11.0191 16.1984 10.7052 15.9076C10.3913 15.6167 10.2344 15.2573 10.2344 14.8296C10.2356 13.9129 10.497 13.0879 11.0185 12.3546C11.54 11.6212 12.1438 10.949 12.83 10.3379C13.3384 9.87956 13.7937 9.39067 14.1958 8.87122C14.598 8.35178 14.7991 7.75595 14.7991 7.08372C14.8003 6.35039 14.5246 5.73928 13.9721 5.25039Z" fill="white"/>
</svg>
