<svg fill="none" xmlns="http://www.w3.org/2000/svg" viewBox="0 0 16 16" class="design-iconfont">
  <path d="M8 11.3333C8.18889 11.3333 8.34733 11.2693 8.47533 11.1413C8.60333 11.0133 8.66711 10.8551 8.66667 10.6667C8.66622 10.4782 8.60222 10.32 8.47467 10.192C8.34711 10.064 8.18889 10 8 10C7.81111 10 7.65289 10.064 7.52533 10.192C7.39778 10.32 7.33378 10.4782 7.33333 10.6667C7.33289 10.8551 7.39689 11.0136 7.52533 11.142C7.65378 11.2704 7.812 11.3342 8 11.3333ZM8 8.66667C8.18889 8.66667 8.34733 8.60267 8.47533 8.47467C8.60333 8.34667 8.66711 8.18844 8.66667 8V5.33333C8.66667 5.14444 8.60267 4.98622 8.47467 4.85867C8.34667 4.73111 8.18844 4.66711 8 4.66667C7.81156 4.66622 7.65333 4.73022 7.52533 4.85867C7.39733 4.98711 7.33333 5.14533 7.33333 5.33333V8C7.33333 8.18889 7.39733 8.34733 7.52533 8.47533C7.65333 8.60333 7.81156 8.66711 8 8.66667ZM6.05 14C5.87222 14 5.70289 13.9667 5.542 13.9C5.38111 13.8333 5.23933 13.7389 5.11667 13.6167L2.38333 10.8833C2.26111 10.7611 2.16667 10.6193 2.1 10.458C2.03333 10.2967 2 10.1276 2 9.95067V6.05067C2 5.87289 2.03333 5.70356 2.1 5.54267C2.16667 5.38178 2.26111 5.24 2.38333 5.11733L5.11667 2.384C5.23889 2.26178 5.38067 2.16733 5.542 2.10067C5.70333 2.034 5.87267 2.00044 6.05 2H9.95C10.1278 2 10.2973 2.03333 10.4587 2.1C10.62 2.16667 10.7616 2.26111 10.8833 2.38333L13.6167 5.11667C13.7389 5.23889 13.8333 5.38067 13.9 5.542C13.9667 5.70333 14 5.87267 14 6.05V9.95C14 10.1278 13.9667 10.2973 13.9 10.4587C13.8333 10.62 13.7389 10.7616 13.6167 10.8833L10.8833 13.6167C10.7611 13.7389 10.6193 13.8333 10.458 13.9C10.2967 13.9667 10.1273 14 9.95 14H6.05Z" fill="#fff"/>
</svg>
