<svg width="24" height="24" viewBox="0 0 24 24" fill="none" xmlns="http://www.w3.org/2000/svg">
<path d="M17.4 3V6.6M17.4 6.6V10.2M17.4 6.6H13.8M17.4 6.6H21M4.8 10.2H8.4C9.39411 10.2 10.2 9.39411 10.2 8.4V4.8C10.2 3.80589 9.39411 3 8.4 3H4.8C3.80589 3 3 3.80589 3 4.8V8.4C3 9.39411 3.80589 10.2 4.8 10.2ZM10.2 17.4C10.2 19.3882 8.58823 21 6.6 21C4.61177 21 3 19.3882 3 17.4C3 15.4118 4.61177 13.8 6.6 13.8C8.58823 13.8 10.2 15.4118 10.2 17.4ZM15.6 21H19.2C20.1941 21 21 20.1941 21 19.2V15.6C21 14.6059 20.1941 13.8 19.2 13.8H15.6C14.6059 13.8 13.8 14.6059 13.8 15.6V19.2C13.8 20.1941 14.6059 21 15.6 21Z" stroke="#333333" stroke-width="1.5" stroke-linecap="round"/>
</svg>
